<?xml version="1.0" encoding="utf-8"?>
<!-- Generator: Adobe Illustrator 25.2.2, SVG Export Plug-In . SVG Version: 6.00 Build 0)  -->
<svg version="1.1" id="Layer_1" xmlns="http://www.w3.org/2000/svg" xmlns:xlink="http://www.w3.org/1999/xlink" x="0px" y="0px"
	 viewBox="0 0 1447.1 353.6" style="enable-background:new 0 0 1447.1 353.6;" xml:space="preserve">
<style type="text/css">
	.st0{fill:#1D4EAA;}
</style>
<g>
	<path class="st0" d="M728.5,86.2c-8.2,0-14.8,4.3-20.1,13.2L608.1,266.2l-42.8-162.7c-2.9-11.1-9.9-17-20.2-17
		c-8.8,0-15.9,5-20,13.9l-49.6,106L426,100.3c-4.2-8.6-12.2-13.9-21-13.9c-10.8,0-17.7,5.7-20.7,17l-43.6,164.7h41.9l27.1-105.3
		l43.4,92.3c4.7,10.2,11.8,15.4,21.2,15.4c5.9,0,14.5-1.6,21.2-15.4l43.6-92.4l27.3,105.4H607h1.7h46.7l24.4-41.3h95.2l24.5,41.3
		H850L748.7,99.4C743.3,90.5,736.7,86.2,728.5,86.2z M699.7,192.8l27.3-46.4l27.5,46.4H699.7z"/>
	<path class="st0" d="M1006.8,199.7l-110-105.6c-5.7-5.4-10.6-7.7-16.8-7.7c-12.9,0-21.2,9.6-21.2,24.6v157.1h40.5V155.4l110,107.2
		c5.6,5.6,10.7,7.9,17.1,7.9c12.7,0,21.2-10,21.2-24.8V88.6h-40.8V199.7z"/>
	<polygon class="st0" points="1239,88.6 1068.4,88.6 1068.4,131.1 1132.4,131.1 1132.4,268.1 1174.9,268.1 1174.9,131.1 1239,131.1 
			"/>
	<path class="st0" d="M1346.1,99.4c-5.3-8.9-11.9-13.2-20.1-13.2s-14.8,4.3-20.1,13.2l-101.4,168.7h48.3l24.4-41.3h95.2l24.5,41.3
		h50.7L1346.1,99.4z M1297.2,192.8l27.3-46.4l27.5,46.4H1297.2z"/>
	<path class="st0" d="M265.1,54.3c-1.4-1.4-3.8-1-4.7,0.8l-43.7,90.6c-0.6,1.2-0.3,2.6,0.7,3.5c17.2,15.3,50.6,25.2,60,28.1
		c1.4,0.4,3-0.3,3.6-1.7C310.4,106.1,275.8,64.9,265.1,54.3z"/>
	<path class="st0" d="M274.3,186.5c-35.9-4.8-117.6-33.1-176.1-184.3c-0.7-1.9-2.9-2.8-4.8-1.9C71.8,10.8-41.4,75.1,64.9,232.8
		c1,1.4,0.7,3.4-0.5,4.6c-23.8,22.2-52.6,58.6-64.3,112c-0.8,3.9,4.3,6,6.4,2.6c25-40.3,99.7-137.9,246.5-160.6
		c8.1-0.9,15.4-1.7,21.4-2.3c0.6-0.1,1.1-0.6,1.1-1.2C275.4,187.1,275,186.6,274.3,186.5z"/>
</g>
</svg>
